<?xml version="1.0" standalone="no"?>
<!DOCTYPE svg PUBLIC "-//W3C//DTD SVG 20010904//EN"
 "http://www.w3.org/TR/2001/REC-SVG-20010904/DTD/svg10.dtd">
<svg version="1.0" xmlns="http://www.w3.org/2000/svg"
 width="512.000000pt" height="512.000000pt" viewBox="0 0 512.000000 512.000000"
 preserveAspectRatio="xMidYMid meet">

<g transform="translate(0.000000,512.000000) scale(0.100000,-0.100000)"
fill="#000000" stroke="none">
<path d="M2528 3957 c-20 -17 -41 -42 -47 -54 -10 -20 -14 -21 -31 -10 -11 6
-20 17 -20 24 0 17 -15 16 -30 -2 -6 -7 -37 -28 -68 -46 -88 -50 -177 -141
-219 -226 l-36 -72 6 -143 c4 -79 9 -155 13 -170 5 -22 3 -28 -10 -28 -8 0
-18 -11 -22 -24 -8 -32 13 -133 35 -172 10 -16 24 -55 31 -85 28 -121 122
-277 207 -345 52 -42 129 -80 179 -87 54 -9 146 16 206 55 114 72 235 246 267
380 6 26 20 62 30 80 11 18 22 53 26 78 3 25 8 57 11 71 3 17 -1 33 -11 43
-15 15 -15 22 1 92 23 106 16 232 -18 305 -44 95 -135 167 -270 212 -25 9 -60
25 -77 35 -35 21 -81 78 -81 99 0 17 -10 16 -32 -4 -20 -18 -25 -4 -6 15 25
25 2 11 -34 -21z m-17 -44 c-12 -20 -14 -14 -5 12 4 9 9 14 11 11 3 -2 0 -13
-6 -23z"/>
<path d="M1041 3928 l12 -23 -23 20 c-15 13 -24 16 -27 8 -10 -28 -64 -93 -78
-93 -8 0 -15 -4 -15 -10 0 -5 -9 -10 -21 -10 -36 0 -166 -67 -212 -109 -25
-24 -55 -64 -68 -94 -30 -70 -36 -188 -15 -280 14 -61 14 -70 1 -83 -18 -18
-18 -15 -4 -90 5 -32 18 -70 28 -84 10 -14 21 -43 25 -65 23 -129 150 -302
268 -366 55 -29 72 -34 133 -34 59 0 79 5 123 30 106 58 224 217 252 340 6 28
20 66 30 85 18 35 40 124 40 161 0 12 -8 23 -20 26 -14 4 -18 11 -15 27 12 47
22 175 19 234 -7 121 -97 249 -226 321 -31 18 -62 39 -68 46 -17 20 -27 19
-33 -5 -6 -25 -32 -26 -41 -3 -6 14 -9 15 -15 4 -6 -10 -10 -9 -14 4 -4 9 -3
13 3 10 24 -15 7 14 -21 34 l-31 23 13 -24z"/>
<path d="M4058 3925 c-27 -23 -38 -43 -18 -30 6 3 7 -1 3 -10 -4 -13 -8 -14
-14 -4 -6 11 -9 10 -15 -4 -9 -23 -35 -22 -41 3 -6 24 -16 25 -33 5 -6 -7 -37
-28 -68 -46 -118 -67 -211 -191 -226 -302 -5 -44 8 -221 19 -258 4 -11 -2 -18
-15 -22 -12 -3 -20 -13 -20 -26 0 -37 22 -126 37 -150 9 -13 22 -51 29 -84 34
-143 152 -300 270 -358 57 -28 71 -31 123 -26 156 14 336 194 382 382 6 28 20
64 29 80 10 17 23 57 29 89 14 75 14 72 -4 90 -13 13 -13 22 1 83 36 152 2
297 -88 378 -44 40 -173 105 -207 105 -12 0 -21 4 -21 9 0 5 -9 13 -20 16 -12
4 -33 25 -47 48 -15 23 -28 44 -30 46 -2 2 -13 -4 -24 -15 -22 -19 -22 -19
-10 4 15 27 13 27 -21 -3z"/>
<path d="M681 2654 c-31 -32 -57 -45 -227 -114 -164 -66 -270 -131 -301 -187
-34 -60 -90 -241 -119 -380 -21 -102 -27 -158 -28 -272 l-1 -143 55 -50 c66
-60 213 -134 360 -182 232 -75 543 -126 935 -151 l90 -6 -66 29 c-88 39 -177
93 -214 132 l-30 31 0 142 c1 197 38 429 114 702 28 103 33 113 77 153 40 37
175 110 273 149 23 9 20 11 -35 33 -97 38 -171 78 -209 111 -20 18 -37 30 -39
28 -1 -2 -16 -30 -32 -62 -83 -168 -209 -253 -319 -217 -54 18 -153 116 -205
204 -25 41 -47 75 -50 76 -3 0 -16 -12 -29 -26z"/>
<path d="M3769 2654 c-21 -22 -118 -73 -238 -125 l-34 -15 91 -38 c97 -40 193
-97 230 -138 26 -29 69 -174 112 -378 43 -204 54 -301 55 -457 0 -136 -1 -142
-24 -167 -39 -42 -120 -93 -206 -131 l-80 -36 95 6 c632 40 1097 161 1291 334
l54 49 -1 143 c-1 114 -7 170 -28 272 -29 139 -85 320 -119 380 -32 57 -143
126 -298 187 -161 62 -196 80 -232 116 -15 15 -29 25 -30 23 -2 -2 -21 -32
-41 -67 -81 -135 -187 -222 -270 -222 -86 0 -195 95 -261 229 -17 33 -33 60
-36 61 -3 0 -16 -12 -30 -26z"/>
<path d="M2182 2563 c-38 -39 -171 -104 -332 -162 -158 -57 -203 -92 -257
-201 -69 -138 -117 -350 -143 -634 -13 -138 -3 -204 36 -235 38 -30 285 -107
449 -140 504 -102 947 -95 1400 24 184 48 270 81 300 117 24 28 25 35 25 168
0 200 -38 405 -116 622 -41 113 -59 143 -112 182 -66 48 -187 108 -306 151
-126 45 -174 71 -212 110 l-30 33 -45 -76 c-79 -135 -184 -231 -270 -247 -107
-20 -221 72 -319 255 l-35 66 -33 -33z"/>
</g>
</svg>
