<?xml version="1.0" standalone="no"?>
<!DOCTYPE svg PUBLIC "-//W3C//DTD SVG 20010904//EN"
 "http://www.w3.org/TR/2001/REC-SVG-20010904/DTD/svg10.dtd">
<svg version="1.0" xmlns="http://www.w3.org/2000/svg"
 width="225.000000pt" height="225.000000pt" viewBox="0 0 225.000000 225.000000"
 preserveAspectRatio="xMidYMid meet">

<g transform="translate(0.000000,225.000000) scale(0.100000,-0.100000)"
fill="#000000" stroke="none">
<path d="M195 1901 c-72 -18 -130 -64 -167 -132 l-23 -44 0 -585 c0 -583 0
-585 22 -626 28 -52 79 -97 134 -118 40 -15 129 -16 965 -14 l921 3 49 30 c30
19 60 49 79 79 l30 49 3 590 c2 580 2 590 -18 633 -12 23 -39 59 -60 78 -76
68 -45 66 -1024 65 -485 -1 -894 -4 -911 -8z m411 -529 l502 -272 448 241
c247 132 478 256 514 276 80 42 87 49 -273 -235 -164 -129 -297 -237 -297
-241 0 -4 21 -27 46 -51 25 -25 141 -144 257 -265 140 -144 195 -207 162 -184
-27 20 -162 117 -300 216 -137 99 -262 187 -277 197 l-26 17 -127 -84 -127
-85 -129 84 c-71 46 -132 84 -135 84 -3 0 -143 -101 -312 -223 -169 -123 -314
-228 -322 -232 -8 -5 102 112 245 259 143 147 261 271 262 274 1 4 -139 117
-312 251 -273 213 -341 267 -307 248 4 -2 233 -126 508 -275z"/>
</g>
</svg>
