<?xml version="1.0" standalone="no"?>
<!DOCTYPE svg PUBLIC "-//W3C//DTD SVG 20010904//EN"
 "http://www.w3.org/TR/2001/REC-SVG-20010904/DTD/svg10.dtd">
<svg version="1.0" xmlns="http://www.w3.org/2000/svg"
 width="195.000000pt" height="195.000000pt" viewBox="0 0 195.000000 195.000000"
 preserveAspectRatio="xMidYMid meet">

<g transform="translate(0.000000,195.000000) scale(0.100000,-0.100000)"
fill="#000000" stroke="none">
<path d="M920 1582 c-34 -17 -676 -495 -772 -575 -33 -26 -48 -46 -48 -63 0
-25 32 -49 55 -40 8 3 186 135 397 294 211 159 393 294 404 300 27 14 1 32
462 -316 200 -150 369 -275 376 -278 24 -9 56 15 56 41 0 24 -55 74 -202 184
l-58 43 0 118 c0 148 -2 150 -122 150 -93 0 -113 -10 -120 -62 -3 -27 -7 -24
-148 83 -191 146 -214 155 -280 121z"/>
<path d="M905 1294 c-64 -43 -530 -401 -544 -417 -9 -11 -11 -87 -9 -310 3
-282 4 -297 24 -324 11 -15 36 -38 54 -51 31 -20 44 -22 191 -22 l159 0 0 210
c0 232 5 257 60 285 40 21 210 21 250 0 55 -28 60 -53 60 -285 l0 -210 169 0
c158 0 170 1 202 23 19 12 44 42 57 67 21 43 22 54 22 325 0 279 0 282 -22
302 -35 31 -532 409 -556 422 -34 18 -77 13 -117 -15z"/>
</g>
</svg>
