<?xml version="1.0" standalone="no"?>
<!DOCTYPE svg PUBLIC "-//W3C//DTD SVG 20010904//EN"
 "http://www.w3.org/TR/2001/REC-SVG-20010904/DTD/svg10.dtd">
<svg version="1.0" xmlns="http://www.w3.org/2000/svg"
 width="247.000000pt" height="248.000000pt" viewBox="0 0 247.000000 248.000000"
 preserveAspectRatio="xMidYMid meet">

<g transform="translate(0.000000,248.000000) scale(0.100000,-0.100000)"
fill="#000000" stroke="none">
<path d="M618 2452 l-28 -27 0 -186 c0 -181 1 -186 23 -207 19 -18 35 -22 88
-22 57 0 69 3 90 26 24 25 24 29 24 211 l0 185 -30 24 c-45 36 -129 33 -167
-4z"/>
<path d="M1720 2471 c0 -5 -9 -12 -19 -16 -11 -3 -27 -22 -36 -41 -14 -30 -16
-61 -13 -191 l3 -155 35 -29 c74 -62 171 -22 186 77 3 24 4 102 2 171 l-4 126
-39 34 c-29 25 -48 33 -77 33 -21 0 -38 -4 -38 -9z"/>
<path d="M232 2240 c-187 -5 -205 -7 -218 -24 -12 -17 -14 -183 -14 -1098 l0
-1077 22 -21 c22 -20 28 -20 1210 -20 l1189 0 24 25 25 24 0 1071 c0 1066 0
1071 -21 1093 -19 21 -30 22 -225 27 -151 4 -208 2 -215 -7 -6 -6 -9 -31 -7
-55 l3 -43 173 -3 172 -2 0 -300 0 -300 -1120 0 -1120 0 2 298 3 297 173 3
173 2 -3 57 c-2 31 -7 57 -13 58 -5 0 -101 -2 -213 -5z m1173 -1002 l0 -173
-172 -3 -173 -2 0 173 c0 96 2 176 4 178 2 2 80 3 173 2 l168 -2 0 -173z m945
170 c1 -12 1 -322 0 -341 0 -4 -78 -6 -172 -5 l-173 3 -3 172 -2 173 167 3
c93 1 171 4 176 5 4 1 7 -4 7 -10z m-1882 -170 l-3 -173 -177 -3 -178 -2 0
175 0 175 180 0 180 0 -2 -172z m472 -3 l0 -175 -177 2 -178 3 -3 173 -2 172
180 0 180 0 0 -175z m948 3 l-3 -173 -180 0 -180 0 -3 173 -2 172 185 0 185 0
-2 -172z m-1420 -453 c1 -88 0 -170 -3 -183 -5 -22 -6 -22 -178 -20 l-172 3
-3 170 c-1 93 0 175 3 182 3 11 42 13 177 11 l173 -3 3 -160z m470 -17 l-3
-183 -175 0 -175 0 -3 170 c-1 93 0 175 2 182 4 10 47 13 181 13 l175 0 -2
-182z m950 8 c2 -116 -1 -173 -9 -182 -9 -11 -49 -14 -179 -14 -144 0 -169 2
-174 16 -8 22 -8 339 1 348 4 3 86 5 182 4 l176 -3 3 -169z m463 162 c2 -7 2
-89 -1 -183 l-5 -170 -170 0 -170 0 -3 170 c-1 93 0 175 2 182 7 18 342 19
347 1z m-1895 -472 c11 -4 14 -41 14 -176 l0 -170 -168 0 c-117 0 -172 4 -180
12 -15 15 -17 335 -2 340 16 5 321 0 336 -6z m952 -170 c2 -115 -1 -176 -8
-176 -5 0 -83 -1 -172 -1 l-163 0 -3 168 c-1 92 -1 172 1 178 3 6 64 9 173 8
l169 -1 3 -176z m482 -6 l0 -170 -185 0 -185 0 2 172 3 173 165 5 c91 3 173 1
183 -3 15 -7 17 -25 17 -177z m-950 5 l0 -175 -180 0 -180 0 0 175 0 175 180
0 180 0 0 -175z m1410 12 c0 -113 -4 -167 -12 -175 -8 -8 -62 -12 -175 -12
l-163 0 0 175 0 175 175 0 175 0 0 -163z"/>
<path d="M944 2241 c-2 -2 -4 -28 -4 -58 l0 -53 290 0 290 0 0 55 0 54 -286 3
c-157 2 -288 1 -290 -1z"/>
</g>
</svg>
